<svg width="20" height="20" viewBox="0 0 20 20" fill="none" xmlns="http://www.w3.org/2000/svg">
<path d="M5.51663 8.99167C6.71663 11.6167 8.63329 13.5333 11.2583 14.7333L13.175 12.8167C13.4083 12.5833 13.7916 12.5 14.0916 12.6C15.0916 12.925 16.175 13.0917 17.3333 13.0917C17.7916 13.0917 18.1666 13.4667 18.1666 13.925V16.6667C18.1666 17.125 17.7916 17.5 17.3333 17.5C9.50829 17.5 3.16663 11.1583 3.16663 3.33333C3.16663 2.875 3.54163 2.5 3.99996 2.5H6.91663C7.37496 2.5 7.74996 2.875 7.74996 3.33333C7.74996 4.49167 7.91663 5.575 8.24163 6.575C8.34163 6.875 8.25829 7.25833 8.02496 7.49167L6.10829 9.40833L5.51663 8.99167Z" fill="white"/>
</svg>
