<svg width="200" height="200" viewBox="0 0 200 200" fill="none" xmlns="http://www.w3.org/2000/svg">
<g clip-path="url(#clip0_9_402)">
<path fill-rule="evenodd" clip-rule="evenodd" d="M175.023 36.6979C176.776 36.6979 177.949 38.0619 177.949 39.441L177.949 160.559C177.949 161.937 176.776 163.301 175.023 163.301L126.235 163.301L126.235 36.6979L175.023 36.6979ZM199.377 39.441C199.377 25.9554 188.337 15.2693 175.023 15.2693L24.9786 15.2693C11.6643 15.2693 0.624283 25.9554 0.624283 39.441L0.624283 160.559C0.624283 174.044 11.6643 184.73 24.9786 184.73L175.023 184.73C188.337 184.73 199.377 174.044 199.377 160.559L199.377 39.441ZM75.4403 54.7006C75.4403 60.6179 80.2373 65.4149 86.1546 65.4149C92.072 65.4149 96.8689 60.6179 96.8689 54.7006C96.8689 48.7833 92.072 43.9863 86.1546 43.9863C80.2373 43.9863 75.4403 48.7833 75.4403 54.7006ZM75.4403 99.9997C75.4403 105.917 80.2373 110.714 86.1546 110.714C92.072 110.714 96.8689 105.917 96.8689 99.9997C96.8689 94.0823 92.072 89.2854 86.1546 89.2854C80.2373 89.2854 75.4403 94.0823 75.4403 99.9997ZM86.1546 156.013C80.2373 156.013 75.4403 151.216 75.4403 145.299C75.4403 139.381 80.2373 134.584 86.1546 134.584C92.072 134.584 96.8689 139.381 96.8689 145.299C96.8689 151.216 92.072 156.013 86.1546 156.013ZM29.3657 54.7006C29.3657 60.6179 34.1629 65.4149 40.08 65.4149C45.9971 65.4149 50.7943 60.6179 50.7943 54.7006C50.7943 48.7833 45.9971 43.9863 40.08 43.9863C34.1629 43.9863 29.3657 48.7833 29.3657 54.7006ZM40.08 110.714C34.1629 110.714 29.3657 105.917 29.3657 99.9997C29.3657 94.0823 34.1629 89.2854 40.08 89.2854C45.9971 89.2854 50.7943 94.0823 50.7943 99.9997C50.7943 105.917 45.9971 110.714 40.08 110.714ZM29.3657 145.299C29.3657 151.216 34.1629 156.013 40.08 156.013C45.9971 156.013 50.7943 151.216 50.7943 145.299C50.7943 139.381 45.9971 134.584 40.08 134.584C34.1629 134.584 29.3657 139.381 29.3657 145.299ZM159.976 120.916C159.976 115.985 155.978 111.987 151.047 111.987C146.116 111.987 142.119 115.985 142.119 120.916V141.18C142.119 146.111 146.116 150.109 151.047 150.109C155.978 150.109 159.976 146.111 159.976 141.18V120.916Z" fill="white"/>
</g>
<defs>
<clipPath id="clip0_9_402">
<rect width="200" height="200" fill="white" transform="matrix(0 1 -1 0 200 0)"/>
</clipPath>
</defs>
</svg>
