<svg width="50" height="50" viewBox="0 0 50 50" fill="none" xmlns="http://www.w3.org/2000/svg">
<path fill-rule="evenodd" clip-rule="evenodd" d="M23.3024 1.09622C16.5087 3.43497 14.3313 4.80569 14.7547 6.51942C14.9159 7.1443 15.0369 7.72907 15.0369 7.8096C15.0369 7.89014 14.0693 8.59572 12.8799 9.38199C11.6905 10.1683 9.85593 11.6198 8.82772 12.6278C7.77947 13.6156 6.83196 14.4421 6.71099 14.4421C5.56183 14.4421 7.51732 17.8492 8.90826 18.2322C9.55336 18.4136 9.57357 18.4539 9.15019 18.5748C8.62607 18.7362 8.54537 19.9659 8.90826 22.7077C9.49287 27.2436 9.06966 27.0823 11.1461 37.9082C11.5897 40.2266 12.0734 43.0287 12.2346 44.1577C12.779 48.2703 12.9001 49.5 16.0853 49.5H38.0595C38.4627 49.5 38.8054 49.2178 38.9263 48.8347C39.1885 47.9679 39.6924 44.823 39.9544 42.2426C40.398 38.0492 41.0834 32.9488 41.3655 28.7354C42.0309 18.3934 42.4544 16.8412 40.6803 16.8412C40.4787 16.8412 40.4383 16.5993 40.4987 15.9945C40.6197 14.7043 40.2568 14.18 38.4425 13.1115C38.1401 12.9302 38.4021 12.7286 40.2164 11.7406C43.9057 9.72467 44.3897 8.45469 42.7164 5.08805C41.0633 1.76168 38.1199 0.995616 31.2857 2.08414L28.9472 2.44704C26.8505 0.491541 26.5886 -0.0527965 23.3025 1.09637L23.3024 1.09622ZM27.2134 2.76967C27.173 2.80993 25.9433 3.2131 24.4717 3.69695C21.4679 4.68473 19.7141 5.59197 19.8753 6.03555C20.097 6.59995 20.6816 6.53948 23.5846 5.63239C29.7333 3.71717 36.0837 2.9309 39.6117 3.61627C39.9544 3.67674 41.0633 5.45095 40.8818 5.63239C40.8416 5.67267 40.418 5.61218 39.9141 5.51143C23.0605 2.08414 9.53331 16.2162 9.51308 16.2364C9.41233 16.0752 8.66633 14.9058 8.66633 14.7446C8.66633 14.4019 13.4643 10.8538 17.577 8.15229C18.464 7.56768 18.2624 6.98307 17.2343 7.24505C16.952 7.30553 16.7302 7.32559 16.7302 7.28548C16.7302 7.24505 16.6699 7.0636 16.6094 6.88215C16.3675 6.23707 26.4474 1.92292 26.9917 2.44704C27.1732 2.58822 27.2739 2.74945 27.2134 2.76967ZM40.5794 7.10403C41.9503 7.28548 41.9301 7.99105 40.4987 9.50295C38.7649 11.3375 37.7369 11.7811 37.7167 10.6723C37.6966 9.88607 35.4992 8.79738 34.4308 9.05953C33.9066 9.20054 33.6847 8.79738 32.4953 7.18457C35.2169 6.72092 38.3619 6.82168 40.5794 7.10403ZM31.4873 7.78939C32.1526 8.25304 32.6768 9.14007 32.6768 9.78515C32.6768 10.7126 33.584 11.2569 34.8944 11.0956L36.0837 10.9545L35.9629 12.0431C35.8217 13.3334 36.5675 14.2204 37.7772 14.2204C38.8859 14.2204 39.0069 14.4421 38.382 15.3897C37.7167 16.4179 36.2048 16.6194 35.5395 15.7928C34.5114 14.5228 33.7452 13.7568 33.2411 13.4946C31.9914 12.8495 31.9307 13.3939 33.1001 14.8655L33.9267 15.9138C31.8502 16.1154 31.7495 16.0347 31.8099 16.6194C31.8906 17.4258 32.4751 17.5871 37.8981 18.2322C40.6197 18.5548 40.5794 18.5346 40.4585 19.4216C40.398 19.8248 40.1963 21.6997 40.0149 23.5947C39.9544 24.3205 40.4987 19.8852 38.5232 37.4244C37.5152 46.3551 36.8096 47.3631 36.4063 47.4438C35.9426 47.5245 35.9426 41.8192 36.5475 36.7993C37.0313 32.7876 37.4143 26.8001 37.1321 26.0541C36.8497 25.3285 32.8985 24.3608 32.858 25.0059C32.8178 25.5704 32.6768 26.3163 32.4953 27.0219C32.1324 28.3927 31.4469 40.2064 31.4469 44.9641V47.4035L29.3302 47.2825L28.927 25.9937C28.9269 25.6135 28.7068 25.2677 28.3624 25.1066C28.04 24.9454 26.9917 24.8244 25.9433 24.8042L25.1772 24.7842C24.5926 24.764 24.1089 25.268 24.1492 25.8526C24.3709 30.0056 24.2097 30.4289 24.2097 47.4438H22.0121C21.367 37.8477 21.2058 35.7309 20.0366 35.4284C18.6657 35.0858 18.6254 35.6906 19.5325 44.0166C19.6534 45.0649 19.7744 46.2745 19.8349 46.6777C19.9358 47.4035 19.8954 47.4438 19.351 47.4438H18.7666C18.1618 40.8515 18.0206 38.4928 17.4158 34.5414C16.8714 31.0942 16.2666 26.2356 16.3675 26.1348C16.448 26.0541 17.8996 25.9736 18.0005 25.9736C18.3432 28.6145 18.1013 27.1831 18.3029 29.7234C18.5449 32.8481 20.7622 33.7956 20.1978 29.8241C19.8551 27.405 19.9761 27.5259 20.097 26.7397C20.3188 25.409 20.0566 25.1268 18.2826 24.8447C16.5287 24.5623 14.7749 24.8244 14.8354 25.389C16.0248 38.1502 17.0328 47.3631 16.5489 47.5445C15.541 47.9276 15.1378 47.6857 14.9966 46.597C14.7345 44.5205 13.8476 39.6418 13.0613 35.872C11.8517 30.1063 11.2671 25.4695 10.4405 19.9457C13.1621 19.1999 18.4842 17.6073 20.2382 17.9298C21.1252 18.0911 26.8708 17.2242 28.2617 17.2242C29.2899 17.2242 29.4511 17.0025 28.9069 16.3976C28.6045 16.055 29.935 13.6559 29.9552 13.6358C31.1446 11.9423 26.7698 12.5471 26.5481 15.5913L26.5077 16.2364H24.7338C22.5564 16.2364 22.5362 16.1557 24.2902 14.2607C25.8828 12.5269 25.903 12.6681 24.2902 10.9948L22.9798 9.62392C28.2819 7.7087 30.3786 7.54747 30.822 7.38623C30.8624 7.36602 31.1647 7.54747 31.4873 7.78939ZM22.6373 11.0351C23.1614 11.4182 23.3225 12.1238 23.0201 12.6883C21.1856 16.1557 21.2462 16.1759 20.339 16.3169C19.2302 16.4984 19.2302 16.4581 20.1777 14.8253C20.9841 13.4342 21.085 12.7891 20.5204 12.7891C20.2785 12.7891 18.323 15.5106 18.061 16.2364C17.94 16.5388 15.8232 16.9622 15.6014 16.7403C15.4603 16.5993 17.1738 13.2527 17.7382 12.6076C19.2301 10.8536 21.4074 10.1683 22.6373 11.0351ZM15.4402 14.1599C14.291 17.0427 14.7747 16.9822 12.5371 17.5266C9.61384 18.2524 9.85577 17.5064 13.3031 15.1477C15.3594 13.7568 15.6619 13.6156 15.4402 14.1599ZM27.5361 40.1257C27.4554 42.9482 27.6168 45.71 27.6772 46.2946C27.778 47.1413 27.2136 47.2825 26.9717 47.2825C26.5683 47.2825 26.2457 46.9599 26.0845 40.7708C26.024 38.009 26.0643 33.1908 25.903 31.1143C25.4997 25.7115 25.4594 25.9736 26.3062 26.0744L27.2741 26.1953C27.4756 26.2155 27.6166 26.3768 27.6166 26.5784C27.6166 28.6549 27.5563 39.5411 27.5361 40.1257ZM36.0837 26.5179C36.0837 26.5985 35.9629 27.3445 35.8016 28.2315C35.5798 29.3402 35.2773 31.961 35.1764 36.1947C34.9547 44.3593 34.4911 47.484 33.846 47.484C33.6645 47.484 32.697 47.5849 32.8179 45.4883C32.9187 43.9562 33.1203 40.7305 33.1404 38.896C33.1807 34.9245 33.7048 28.3725 33.866 27.0421C33.967 26.1551 36.0837 25.7115 36.0837 26.5179Z" fill="white"/>
</svg>
